<svg version="1.1" xmlns="http://www.w3.org/2000/svg" xmlns:xlink="http://www.w3.org/1999/xlink" width="1560" height="804"><defs/><g><path fill="none" stroke="#02063B" paint-order="fill stroke markers" d=" M 983 310.1638201461586 L 984 309.7017146720133 L 985 309.2409851190776 L 986 308.7816383556002 L 987 308.3236812292158 L 988 307.86712056684365 L 989 307.4119631745851 L 990 306.9582158376227 L 991 306.50588532011875 L 992 306.0549783651146 L 993 305.60550169443013 L 994 305.15746200856336 L 995 304.7108659865907 L 996 304.2657202860676 L 997 303.8220315429288 L 998 303.37980637139003 L 999 302.93905136384865 L 1000 302.4997730907861 L 1001 302.06197810066953 L 1002 301.6256729198545 L 1003 301.1908640524871 L 1004 300.7575579804078 L 1005 300.325761163054 L 1006 299.8954800373645 L 1007 299.4667210176829 L 1008 299.0394904956625 L 1009 298.6137948401706 L 1010 298.1896403971938 L 1011 297.76703348974337 L 1012 297.3459804177608 L 1013 296.92648745802427 L 1014 296.50856086405463 L 1015 296.09220686602254 L 1016 295.6774316706554 L 1017 295.2642414611449 L 1018 294.85264239705464 L 1019 294.4426406142289 L 1020 294.0342422247003 L 1021 293.6274533165994 L 1022 293.2222799540636 L 1023 292.81872817714697 L 1024 292.4168040017298 L 1025 292.01651341942943 L 1026 291.61786239751046 L 1027 291.2208568787963 L 1028 290.82550278158004 L 1029 290.43180599953666 L 1030 290.0397724016348 L 1031 289.64940783204975 L 1032 289.26071811007563 L 1033 288.8737090300395 L 1034 288.4883863612141 L 1035 288.1047558477328 L 1036 287.72282320850286 L 1037 287.3425941371212 L 1038 286.96407430178874 L 1039 286.5872693452268 L 1040 286.2121848845918 L 1041 285.83882651139254 L 1042 285.4671997914062 L 1043 285.097310264596 L 1044 284.72916344502795 L 1045 284.362764820789 L 1046 283.9981198539051 L 1047 283.6352339802602 L 1048 283.27411260951436 L 1049 282.914761125024 L 1050 282.5571848837609 L 1051 282.2013892162332 L 1052 281.84737942640504 L 1053 281.4951607916179 L 1054 281.144738562512 L 1055 280.7961179629481 L 1056 280.4493041899292 L 1057 280.10430241352356 L 1058 279.76111777678716 L 1059 279.41975539568756 L 1060 279.0802203590272 L 1061 278.7425177283676 L 1062 278.4066525379541 L 1063 278.07262979464076 L 1064 277.74045447781566 L 1065 277.41013153932647 L 1066 277.08166590340716 L 1067 276.75506246660404 L 1068 276.4303260977031 L 1069 276.10746163765714 L 1070 275.78647389951414 L 1071 275.467367668345 L 1072 275.1501477011722 L 1073 274.83481872689924 L 1074 274.52138544624 L 1075 274.2098525316485 L 1076 273.9002246272494 L 1077 273.5925063487687 L 1078 273.2867022834652 L 1079 272.9828169900616 L 1080 272.68085499867703 L 1081 272.380820810759 L 1082 272.0827188990172 L 1083 271.78655370735567 L 1084 271.4923296508074 L 1085 271.2000511154681 L 1086 270.90972245843113 L 1087 270.62134800772213 L 1088 270.334932062235 L 1089 270.05047889166724 L 1090 269.7679927364569 L 1091 269.4874778077191 L 1092 269.20893828718283 L 1093 268.9323783271293 L 1094 268.65780205033 L 1095 268.38521354998454 L 1096 268.11461688966017 L 1097 267.8460161032315 L 1098 267.5794151948195 L 1099 267.31481813873256 L 1100 267.0522288794069 L 1101 266.7916513313479 L 1102 266.53308937907167 L 1103 266.27654687704717 L 1104 266.0220276496385 L 1105 265.7695354910487 L 1106 265.51907416526205 L 1107 265.2706474059889 L 1108 265.02425891660937 L 1109 264.7799123701186 L 1110 264.5376114090718 L 1111 264.29735964552987 L 1112 264.05916066100565 L 1113 263.8230180064106 L 1114 263.5889352020018 L 1115 263.35691573732925 L 1116 263.12696307118426 L 1117 262.8990806315478 L 1118 262.6732718155389 L 1119 262.4495399893647 L 1120 262.2278884882699 L 1121 262.008320616487 L 1122 261.79083964718745 L 1123 261.575448822432 L 1124 261.3621513531235 L 1125 261.15095041895813 L 1126 260.9418491683784 L 1127 260.734850718526 L 1128 260.52995815519586 L 1129 260.3271745327893 L 1130 260.1265028742693 L 1131 259.9279461711148 L 1132 259.7315073832767 L 1133 259.5371894391333 L 1134 259.3449952354466 L 1135 259.15492763731953 L 1136 258.966989478153 L 1137 258.7811835596036 L 1138 258.5975126515418 L 1139 258.41597949201093 L 1140 258.2365867871862 L 1141 258.0593372113341 L 1142 257.8842334067731 L 1143 257.7112779838336 L 1144 257.54047352081983 L 1145 257.37182256397057 L 1146 257.2053276274216 L 1147 257.0409911931683 L 1148 256.87881571102855 L 1149 256.71880359860614 L 1150 256.56095724125475 L 1151 256.40527899204255 L 1152 256.2517711717169 L 1153 256.10043606866986 L 1154 255.95127593890416 L 1155 255.8042930059994 L 1156 255.65948946107898 L 1157 255.51686746277747 L 1158 255.37642913720836 L 1159 255.2381765779325 L 1160 255.10211184592671 L 1161 254.96823696955315 L 1162 254.83655394452907 L 1163 254.70706473389714 L 1164 254.579771267996 L 1165 254.45467544443167 L 1166 254.33177912804913 L 1167 254.21108415090464 L 1168 254.09259231223834 L 1169 253.9763053784474 L 1170 253.8622250830598 L 1171 253.75035312670843 L 1172 253.6406911771057 L 1173 253.53324086901875 L 1174 253.428003804245 L 1175 253.32498155158837 L 1176 253.22417564683582 L 1177 253.12558759273446 L 1178 253.02921885896913 L 1179 252.93507088214062 L 1180 252.8431450657441 L 1181 252.75344278014825 L 1182 252.66596536257484 L 1183 252.58071411707883 L 1184 252.49769031452885 L 1185 252.41689519258827 L 1186 252.3383299556969 L 1187 252.2619957750528 L 1188 252.18789378859495 L 1189 252.1160251009863 L 1190 252.04639078359725 L 1191 251.9789918744897 L 1192 251.91382937840166 L 1193 251.850904266732 L 1194 251.7902174775263 L 1195 251.73176991546276 L 1196 251.67556245183854 L 1197 251.621595924557 L 1198 251.5698711381151 L 1199 251.52038886359142 L 1200 251.47314983863467 L 1201 251.42815476745267 L 1202 251.3854043208019 L 1203 251.3448991359775 L 1204 251.30663981680374 L 1205 251.27062693362492 L 1206 251.23686102329714 L 1207 251.20534258918002 L 1208 251.1760721011293 L 1209 251.1490499954899 L 1210 251.12427667508933 L 1211 251.10175250923172 L 1212 251.08147783369225 L 1213 251.0634529507123 L 1214 251.04767812899476 L 1215 251.03415360370013 L 1216 251.02287957644305 L 1217 251.0138562152891 L 1218 251.00708365475262 L 1219 251.00256199579437 L 1220 251.00029130582024 L 1221 251.00027161868016 L 1222 251.0025029346676 L 1223 251.0069852205196 L 1224 251.01371840941724 L 1225 251.0227024009866 L 1226 251.03393706130038 L 1227 251.04742222287973 L 1228 251.0631576846969 L 1229 251.08114321217812 L 1230 251.10137853720713 L 1231 251.12386335812923 L 1232 251.14859733975575 L 1233 251.17558011336897 L 1234 251.20481127672772 L 1235 251.23629039407336 L 1236 251.27001699613623 L 1237 251.30599058014263 L 1238 251.34421060982243 L 1239 251.38467651541688 L 1240 251.42738769368736 L 1241 251.4723435079241 L 1242 251.51954328795583 L 1243 251.5689863301598 L 1244 251.62067189747208 L 1245 251.67459921939877 L 1246 251.73076749202738 L 1247 251.7891758780388 L 1248 251.84982350671976 L 1249 251.912709473976 L 1250 251.97783284234544 L 1251 252.0451926410124 L 1252 252.114787865822 L 1253 252.18661747929505 L 1254 252.2606804106437 L 1255 252.33697555578715 L 1256 252.41550177736838 L 1257 252.49625790477089 L 1258 252.57924273413622 L 1259 252.664455028382 L 1260 252.7518935172202 L 1261 252.84155689717625 L 1262 252.93344383160832 L 1263 253.02755295072734 L 1264 253.12388285161742 L 1265 253.2224320982567 L 1266 253.32319922153883 L 1267 253.42618271929484 L 1268 253.53138105631547 L 1269 253.63879266437414 L 1270 253.74841594225035 L 1271 253.86024925575344 L 1272 253.97429093774707 L 1273 254.090539288174 L 1274 254.20899257408146 L 1275 254.32964902964687 L 1276 254.4525068562044 L 1277 254.5775642222716 L 1278 254.7048192635768 L 1279 254.83427008308678 L 1280 254.96591475103511 L 1281 255.09975130495104 L 1282 255.23577774968865 L 1283 255.37399205745638 L 1284 255.5143921678477 L 1285 255.65697598787148 L 1286 255.80174139198337 L 1287 255.94868622211737 L 1288 256.09780828771807 L 1289 256.24910536577323 L 1290 256.4025752008472 L 1291 256.55821550511394 L 1292 256.7160239583918 L 1293 256.87599820817775 L 1294 257.0381358696826 L 1295 257.2024345258661 L 1296 257.36889172747374 L 1297 257.53750499307273 L 1298 257.70827180908896 L 1299 257.88118962984487 L 1300 258.056255877597 L 1301 258.23346794257475 L 1302 258.41282318301876 L 1303 258.59431892522093 L 1304 258.777952463564 L 1305 258.96372106056185 L 1306 259.15162194690004 L 1307 259.3416523214778 L 1308 259.5338093514492 L 1309 259.7280901722654 L 1310 259.9244918877178 L 1311 260.1230115699807 L 1312 260.3236462596551 L 1313 260.52639296581333 L 1314 260.7312486660426 L 1315 260.9382103064909 L 1316 261.14727480191243 L 1317 261.3584390357133 L 1318 261.5716998599979 L 1319 261.7870540956165 L 1320 262.0044985322118 L 1321 262.22402992826744 L 1322 262.44564501115576 L 1323 262.6693404771873 L 1324 262.8951129916593 L 1325 263.12295918890584 L 1326 263.352875672348 L 1327 263.58485901454435 L 1328 263.8189057572421 L 1329 264.05501241142866 L 1330 264.29317545738377 L 1331 264.5333913447316 L 1332 264.77565649249436 L 1333 265.0199672891448 L 1334 265.26632009266064 L 1335 265.5147112305789 L 1336 265.76513700005034 L 1337 266.01759366789474 L 1338 266.27207747065665 L 1339 266.52858461466155 L 1340 266.7871112760722 L 1341 267.04765360094564 L 1342 267.31020770529085 L 1343 267.57476967512673 L 1344 267.84133556654 L 1345 268.10990140574427 L 1346 268.3804631891393 L 1347 268.6530168833708 L 1348 268.9275584253903 L 1349 269.20408372251575 L 1350 269.48258865249255 L 1351 269.7630690635553 L 1352 270.0455207744893 L 1353 270.32993957469296 L 1354 270.6163212242408 L 1355 270.90466145394635 L 1356 271.19495596542606 L 1357 271.48720043116305 L 1358 271.78139049457207 L 1359 272.0775217700641 L 1360 272.37558984311175 L 1361 272.6755902703152 L 1362 272.97751857946844 L 1363 273.2813702696259 L 1364 273.58714081116926 L 1365 273.8948256458756 L 1366 274.20442018698486 L 1367 274.51591981926833 L 1368 274.8293198990974 L 1369 275.144615754513 L 1370 275.461802685295 L 1371 275.7808759630326 L 1372 276.10183083119415 L 1373 276.4246625051989 L 1374 276.74936617248784 L 1375 277.07593699259553 L 1376 277.40437009722217 L 1377 277.7346605903063 L 1378 278.0668035480978 L 1379 278.40079401923145 L 1380 278.7366270248 L 1381 279.07429755842935 L 1382 279.41380058635275 L 1383 279.75513104748563 L 1384 280.09828385350136 L 1385 280.4432538889071 L 1386 280.79003601112 L 1387 281.1386250505435 L 1388 281.4890158106451 L 1389 281.8412030680333 L 1390 282.19518157253566 L 1391 282.55094604727685 L 1392 282.9084911887577 L 1393 283.267811666934 L 1394 283.62890212529607 L 1395 283.9917571809482 L 1396 284.3563714246897 L 1397 284.72273942109484 L 1398 285.09085570859423 L 1399 285.4607147995559 L 1400 285.83231118036747 L 1401 286.2056393115184 L 1402 286.5806936276821 L 1403 286.95746853779906 L 1404 287.33595842516075 L 1405 287.71615764749254 L 1406 288.09806053703835 L 1407 288.4816614006448 L 1408 288.86695451984633 L 1409 289.2539341509505 L 1410 289.6425945251234 L 1411 290.03292984847553 L 1412 290.4249343021485 L 1413 290.81860204240184 L 1414 291.2139272006995 L 1415 291.6109038837982 L 1416 292.00952617383444 L 1417 292.4097881284135 L 1418 292.81168378069714 L 1419 293.21520713949343 L 1420 293.6203521893457 L 1421 294.027112890622 L 1422 294.4354831796052 L 1423 294.84545696858396 L 1424 295.2570281459426 L 1425 295.67019057625305 L 1426 296.0849381003653 L 1427 296.5012645355005 L 1428 296.919163675342 L 1429 297.3386292901286 L 1430 297.7596551267468 L 1431 298.1822349088246 L 1432 298.6063623368249 L 1433 299.0320310881391 L 1434 299.4592348171816 L 1435 299.8879671554845 L 1436 300.3182217117924 L 1437 300.74999207215774 L 1438 301.1832718000361 L 1439 301.61805443638275 L 1440 302.0543334997484 L 1441 302.49210248637604 L 1442 302.9313548702979 L 1443 303.3720841034328 L 1444 303.81428361568373 L 1445 304.2579468150354 L 1446 304.7030670876531 L 1447 305.1496377979811 L 1448 305.59765228884146 L 1449 306.0471038815332 L 1450 306.49798587593205 L 1451 306.95029155059035 L 1452 307.4040141628372 L 1453 307.8591469488786 L 1454 308.31568312389913 L 1455 308.7736158821622 L 1456 309.2329383971121 L 1457 309.69364382147523 L 1458 310.155725287363 L 1459 310.61917590637336 L 1460 311.08398876969403 L 1461 311.550156948205 L 1462 312.0176734925824 L 1463 312.48653143340175 L 1464 312.9567237812421 L 1465 313.42824352678963 L 1466 313.90108364094294 L 1467 314.37523707491727 L 1468 314.85069676034993 L 1469 315.3274556094052 L 1470 315.8055065148807 L 1471 316.2848423503126 L 1472 316.76545597008237 L 1473 317.247340209523 L 1474 317.73048788502604 L 1475 318.21489179414874 L 1476 318.70054471572075 L 1477 319.18743940995273 L 1478 319.6755686185436 L 1479 320.1649250647893 L 1480 320.6555014536904 L 1481 321.14729047206174 L 1482 321.640284788641 L 1483 322.1344770541982 L 1484 322.6298599016448 L 1485 323.1264259461442 L 1486 323.6241677852214 L 1487 324.12307799887344 L 1488 324.6231491496798 L 1489 325.12437378291384 L 1490 325.6267444266532 L 1491 326.1302535918921 L 1492 326.63489377265176 L 1493 327.1406574460934 L 1494 327.64753707263 L 1495 328.1555250960385 L 1496 328.6646139435725 L 1497 329.17479602607546 L 1498 329.6860637380937 L 1499 330.19840945798927 L 1500 330.7118255480544 L 1501 331.2263043546248 L 1502 331.7418382081941 L 1503 332.25841942352764 L 1504 332.7760402997776 L 1505 333.2946931205977 L 1506 333.814370154258 L 1507 334.33506365376 L 1508 334.85676585695296 L 1509 335.3794689866487 L 1510 335.903165250738 L 1511 336.4278468423066 L 1512 336.9535059397516 L 1513 337.4801347068982 L 1514 338.00772529311655 L 1515 338.53626983343815 L 1516 339.06576044867404 L 1517 339.5961892455318 L 1518 340.127548316733 L 1519 340.65982974113126 L 1520 341.1930255838307 L 1521 341.7271278963036 L 1522 342.26212871650955 L 1523 342.7980200690132 L 1524 343.33479396510427 L 1525 343.87244240291585 L 1526 344.4109573675442 L 1527 344.9503308311675 L 1528 345.49055475316646 L 1529 346.0316210802437 L 1530 346.57352174654346 L 1531 347.1162486737725 L 1532 347.65979377132015 L 1533 348.20414893637917 L 1534 348.74930605406604 L 1535 349.29525699754254 L 1536 349.8419936281365 L 1537 350.3895077954635 L 1538 350.93779133754754 L 1539 351.4868360809439" stroke-linecap="round" stroke-linejoin="round" stroke-miterlimit="10" stroke-width="11"/></g></svg>